<?xml version="1.0" standalone="no"?>
<!DOCTYPE svg PUBLIC "-//W3C//DTD SVG 20010904//EN"
 "http://www.w3.org/TR/2001/REC-SVG-20010904/DTD/svg10.dtd">
<svg version="1.0" xmlns="http://www.w3.org/2000/svg"
 width="300.000000pt" height="300.000000pt" viewBox="0 0 300.000000 300.000000"
 preserveAspectRatio="xMidYMid meet">
<metadata>
Created by potrace 1.10, written by Peter Selinger 2001-2011
</metadata>
<g transform="translate(0.000000,300.000000) scale(0.100000,-0.100000)"
fill="#e1006c" stroke="none">
<path d="M800 1669 c-115 -46 -136 -208 -36 -284 135 -103 320 47 246 199 -37
78 -132 116 -210 85z m146 -30 c118 -71 60 -271 -78 -271 -108 0 -179 91 -150
191 29 96 139 134 228 80z"/>
<path d="M780 1570 c0 -6 5 -10 11 -10 8 0 8 -5 -1 -15 -15 -18 0 -20 24 -2
17 12 16 14 -8 25 -16 7 -26 8 -26 2z"/>
<path d="M894 1559 c-9 -15 11 -33 30 -26 9 4 13 13 10 22 -7 17 -30 20 -40 4z"/>
<path d="M770 1490 c11 -21 59 -50 83 -50 8 0 17 -9 20 -21 9 -34 51 -22 55
16 2 17 11 38 19 48 9 9 13 20 10 24 -4 3 -16 -6 -28 -20 -29 -38 -99 -38
-133 -2 -28 30 -41 33 -26 5z"/>
<path d="M1163 1628 c-12 -6 -29 -26 -39 -46 -13 -29 -14 -41 -5 -73 14 -47
44 -69 92 -69 29 0 43 6 58 26 12 15 21 33 21 40 0 23 -34 16 -45 -8 -12 -28
-47 -35 -69 -13 -19 19 -22 85 -4 103 17 17 53 15 68 -3 17 -21 54 -20 46 1
-3 9 -6 17 -6 20 0 8 -60 34 -77 33 -10 0 -28 -5 -40 -11z"/>
<path d="M1315 1535 c0 -88 1 -95 20 -95 18 0 20 5 17 43 -3 31 1 49 13 61 26
26 45 3 45 -55 0 -43 3 -49 20 -49 19 0 20 5 16 59 -2 33 -7 64 -11 70 -9 15
-58 14 -74 -1 -11 -11 -12 -6 -9 25 3 32 1 37 -17 37 -19 0 -20 -6 -20 -95z"/>
<path d="M1785 1535 c0 -82 2 -95 17 -95 11 0 18 10 20 27 4 37 23 39 38 3 9
-22 19 -30 37 -30 l24 0 -18 31 c-10 17 -24 35 -31 41 -10 9 -7 17 14 40 24
24 25 28 9 28 -10 0 -32 -12 -47 -27 l-28 -27 0 52 c0 43 -3 52 -17 52 -16 0
-18 -11 -18 -95z"/>
<path d="M2119 1603 c-32 -83 -59 -156 -59 -159 0 -14 39 0 46 17 7 15 20 22
46 24 31 1 38 -2 43 -22 3 -14 13 -23 25 -23 11 0 20 3 20 6 0 4 -15 47 -32
95 -28 76 -36 89 -56 89 -15 0 -26 -9 -33 -27z m44 -40 c2 -10 8 -25 11 -34 6
-13 1 -16 -19 -16 -22 0 -26 3 -21 21 3 11 6 27 6 34 0 18 17 15 23 -5z"/>
<path d="M2260 1535 c0 -92 1 -95 23 -95 21 0 22 3 22 95 0 92 -1 95 -22 95
-22 0 -23 -3 -23 -95z"/>
<path d="M1486 1558 c-36 -51 -5 -118 53 -118 29 0 61 22 61 41 0 12 -27 12
-35 -1 -10 -15 -52 -12 -59 5 -4 12 5 15 50 15 47 0 55 3 50 16 -3 9 -6 19 -6
24 0 19 -34 40 -65 40 -24 0 -39 -7 -49 -22z m72 -10 c19 -19 15 -23 -20 -21
-46 2 -45 2 -24 18 24 18 29 18 44 3z"/>
<path d="M1648 1570 c-34 -21 -31 -98 6 -122 20 -14 64 -8 87 11 29 23 18 39
-15 22 -27 -15 -57 -12 -64 7 -2 8 11 12 47 12 56 0 66 15 35 58 -16 24 -65
30 -96 12z m56 -16 c27 -10 18 -29 -14 -29 -33 0 -36 5 -18 23 14 14 12 14 32
6z"/>
<path d="M1920 1577 c0 -2 11 -32 25 -67 26 -67 26 -94 0 -84 -10 4 -15 0 -15
-15 0 -24 27 -28 53 -8 12 9 77 156 77 174 0 2 -9 3 -20 3 -15 0 -22 -11 -31
-45 -6 -25 -14 -45 -18 -45 -4 0 -12 20 -19 45 -9 34 -17 45 -32 45 -11 0 -20
-1 -20 -3z"/>
</g>
</svg>
